<svg viewBox="0 0 200 200" xmlns="http://www.w3.org/2000/svg">
  <path fill="#F2F4F8" d="M44.6,-76.6C58,-69.5,69.2,-58,71.9,-44.5C74.6,-30.9,68.8,-15.5,64,-2.8C59.1,9.8,55.1,19.7,50.8,30.4C46.5,41.2,41.9,52.9,33.4,57.8C24.9,62.6,12.4,60.7,-2,64.2C-16.5,67.7,-33,76.8,-46,74.5C-58.9,72.2,-68.3,58.5,-69.4,44.2C-70.5,29.9,-63.3,15,-61.5,1C-59.7,-12.9,-63.3,-25.7,-61.6,-39.1C-60,-52.4,-53.1,-66.3,-42,-74.6C-30.8,-83,-15.4,-86,0.1,-86.1C15.6,-86.3,31.2,-83.7,44.6,-76.6Z" transform="translate(100 100)" />
</svg>